<?xml version="1.0" standalone="no"?>
<!DOCTYPE svg PUBLIC "-//W3C//DTD SVG 20010904//EN"
 "http://www.w3.org/TR/2001/REC-SVG-20010904/DTD/svg10.dtd">
<svg version="1.0" xmlns="http://www.w3.org/2000/svg"
 preserveAspectRatio="xMidYMid meet">
<metadata>
Created by potrace 1.16, written by Peter Selinger 2001-2019
</metadata>
<g transform="translate(-0.100000,609.000000) scale(0.1,01)"
fill="#000000" stroke="none">
<path d="M0 8050 l0 -70 65 0 65 0 0 70 0 70 -65 0 -65 0 0 -70z"/>
<path d="M170 8050 l0 -70 278 2 277 3 3 68 3 67 -281 0 -280 0 0 -70z"/>
<path d="M760 8050 l0 -70 273 2 272 3 3 58 c2 42 7 57 17 57 11 0 15 -12 15
-39 0 -22 4 -43 10 -46 5 -3 37 14 69 39 l59 46 86 0 c47 0 86 -3 85 -7 0 -5
-39 -35 -86 -68 -328 -228 -647 -571 -861 -923 -118 -196 -249 -480 -321 -698
-53 -161 -141 -513 -141 -565 0 -11 30 -53 68 -92 133 -143 288 -310 318 -344
l31 -34 114 54 c500 240 1053 262 1529 62 76 -32 84 -32 104 8 13 24 16 26 11
7 -15 -56 -12 -60 65 -102 283 -153 581 -424 800 -725 51 -70 52 -71 162 -48
334 70 652 238 907 480 90 87 96 94 161 230 187 387 288 784 317 1246 l6 95
-46 47 c-25 26 -48 47 -52 47 -12 0 -269 182 -278 197 -4 7 -21 13 -36 13 -37
0 -98 47 -110 85 -8 25 -29 198 -81 670 -5 44 -16 141 -24 215 -9 74 -16 138
-16 143 0 4 24 7 54 7 l53 0 7 -50 c4 -27 11 -50 16 -50 6 0 10 23 10 50 0 38
4 50 15 50 12 0 15 -13 15 -60 l0 -60 290 0 290 0 1 28 c3 82 4 87 22 90 15 3
17 -5 17 -57 l0 -61 279 0 c312 0 291 -6 291 76 0 32 4 44 15 44 12 0 15 -13
15 -60 l0 -60 290 0 289 0 3 58 c2 43 7 57 18 57 11 0 16 -14 18 -57 l3 -58
278 0 c315 0 291 -7 291 86 l0 54 -3005 0 -3005 0 0 -70z m1933 12 c-24 -21
-43 -43 -43 -50 0 -24 83 -127 175 -218 128 -127 255 -209 465 -303 128 -57
342 -101 505 -104 l110 -2 6 100 c12 189 13 463 1 477 -6 7 -65 38 -131 68
-66 30 -121 58 -121 63 0 17 43 2 160 -56 l125 -62 -2 -80 c-2 -44 -5 -182 -9
-307 l-6 -228 -82 0 c-154 1 -374 40 -512 91 -30 12 -61 18 -69 15 -8 -3 -15
-1 -15 4 0 5 -33 26 -72 46 -193 96 -411 279 -523 438 l-48 68 32 26 c18 14
38 31 45 38 6 7 20 13 31 13 16 0 12 -7 -22 -37z m-480 -125 c33 -81 38 -100
26 -107 -34 -22 -221 -82 -235 -76 -9 4 -14 9 -11 12 6 6 -41 125 -64 161 -7
12 -11 24 -8 27 10 10 224 85 238 83 7 -1 32 -46 54 -100z m-330 -105 c20 -54
37 -103 37 -109 0 -6 -33 -24 -72 -39 -40 -14 -88 -33 -107 -40 -18 -8 -39
-14 -46 -14 -6 0 -30 44 -53 97 -37 86 -40 99 -27 112 13 14 197 89 220 90 6
1 27 -43 48 -97z m-701 -713 c171 -70 315 -132 321 -138 7 -7 7 -15 0 -23 -5
-7 -31 -69 -58 -138 -71 -184 -73 -190 -82 -190 -24 0 -647 258 -656 270 -7
12 4 54 38 150 71 199 70 198 101 198 14 0 166 -58 336 -129z m3018 -137 c0
-9 10 -61 22 -114 14 -62 19 -101 13 -107 -16 -16 -209 -60 -216 -50 -11 18
-50 239 -44 249 3 6 16 10 28 10 12 1 56 9 97 19 81 19 100 18 100 -7z m-2379
-126 c112 -46 258 -107 324 -134 65 -27 121 -55 123 -61 4 -13 -105 -320 -119
-335 -5 -5 -140 43 -326 117 -175 70 -330 131 -345 137 -31 11 -35 25 -14 49
16 19 116 274 116 296 0 8 8 15 18 15 10 0 110 -38 223 -84z m2444 -188 c9
-25 48 -204 49 -228 1 -21 -5 -25 -39 -32 -110 -21 -167 -29 -179 -25 -8 3
-16 20 -19 39 -2 18 -12 71 -22 117 -11 56 -13 87 -7 93 10 10 152 44 195 47
10 0 20 -5 22 -11z m-496 -752 c146 -62 283 -119 304 -127 78 -28 78 -29 -3
-209 -40 -88 -78 -160 -86 -160 -11 0 -188 72 -556 226 -85 36 -107 50 -112
69 -4 17 12 63 54 156 84 182 77 172 107 164 15 -3 146 -57 292 -119z"/>
<path d="M2042 7978 c-81 -29 -84 -32 -79 -58 10 -48 55 -140 70 -140 25 0
172 58 180 71 13 21 -46 153 -70 156 -10 1 -56 -12 -101 -29z"/>
<path d="M1720 7866 c-47 -18 -86 -39 -88 -47 -4 -22 60 -159 75 -159 27 0
183 63 183 73 0 7 -12 47 -26 89 -19 57 -30 78 -42 77 -9 -1 -55 -16 -102 -33z"/>
<path d="M831 7198 c-41 -107 -95 -278 -90 -283 16 -15 604 -244 610 -238 14
14 110 267 107 281 -2 7 -23 22 -48 32 -208 88 -556 230 -562 230 -5 0 -12
-10 -17 -22z"/>
<path d="M4068 6961 c-37 -10 -70 -19 -72 -22 -4 -4 28 -170 38 -194 5 -13 56
-8 144 16 42 12 42 12 36 48 -4 20 -14 65 -23 101 -20 76 -23 77 -123 51z"/>
<path d="M1555 6759 c-31 -78 -52 -145 -48 -150 17 -16 617 -249 624 -242 13
14 100 265 96 277 -3 6 -31 22 -63 35 -33 14 -166 69 -296 123 -130 54 -241
98 -247 98 -5 0 -34 -64 -66 -141z"/>
<path d="M4132 6636 c-29 -6 -56 -17 -61 -24 -8 -13 25 -191 38 -205 9 -9 161
19 175 33 6 6 4 36 -8 87 -9 43 -19 88 -22 101 -5 25 -32 27 -122 8z"/>
<path d="M3462 5988 c-21 -27 -122 -262 -115 -269 15 -15 617 -260 628 -255
16 6 128 267 118 276 -4 4 -107 49 -228 100 -121 51 -256 108 -299 126 -90 39
-90 38 -104 22z"/>
<path d="M6800 8050 l0 -70 258 2 257 3 3 68 3 67 -261 0 -260 0 0 -70z"/>
<path d="M7352 8053 l3 -68 113 -3 112 -3 0 71 0 70 -115 0 -116 0 3 -67z"/>
<path d="M0 7675 l0 -265 65 0 65 0 0 265 0 265 -65 0 -65 0 0 -265z"/>
<path d="M170 7675 l0 -265 278 2 277 3 0 260 0 260 -277 3 -278 2 0 -265z"/>
<path d="M767 7933 c-4 -3 -7 -120 -7 -260 0 -287 1 -289 68 -200 84 112 209
247 345 374 45 42 84 80 85 85 4 9 -482 11 -491 1z"/>
<path d="M4363 7698 c3 -134 8 -253 12 -265 l7 -23 279 0 279 0 0 40 c0 22 0
135 0 250 0 116 0 217 0 225 0 13 -39 15 -291 15 l-291 0 5 -242z"/>
<path d="M4980 7675 l0 -265 280 0 280 0 6 24 c3 13 4 32 2 42 -2 12 3 19 12
19 10 0 16 -13 18 -42 l3 -43 290 0 c224 0 289 3 290 13 0 6 2 26 2 42 3 49
31 39 35 -12 l3 -43 279 0 280 0 5 23 c3 12 4 130 3 262 l-3 240 -282 3 -282
2 -3 -62 c-2 -48 -7 -63 -18 -63 -15 0 -17 10 -19 93 l-1 32 -290 0 -289 0 -3
-62 c-4 -78 -28 -95 -28 -20 0 88 23 82 -291 82 l-279 0 0 -265z"/>
<path d="M6800 7675 l0 -265 258 2 257 3 0 260 0 260 -257 3 -258 2 0 -265z"/>
<path d="M7355 7927 c-3 -7 -4 -125 -3 -262 l3 -250 113 -3 112 -3 0 266 0
265 -110 0 c-80 0 -112 -4 -115 -13z"/>
<path d="M0 7073 l0 -304 63 3 62 3 3 297 2 296 -27 6 c-16 3 -45 5 -65 4
l-38 -1 0 -304z"/>
<path d="M182 7372 c-9 -7 -12 -74 -10 -303 l3 -294 115 0 115 0 24 50 c55
113 168 316 226 405 72 111 78 125 62 139 -15 12 -516 15 -535 3z"/>
<path d="M4393 7372 c-10 -6 -9 -37 4 -146 16 -131 19 -139 49 -172 18 -19 38
-34 45 -34 6 0 37 -17 68 -38 158 -109 184 -128 204 -149 13 -13 34 -23 50
-23 15 0 44 -9 64 -20 64 -34 63 -36 63 133 l0 154 -75 38 c-77 40 -88 52 -57
61 9 3 24 9 33 14 9 5 33 12 53 15 20 4 39 12 42 17 13 20 6 140 -8 149 -16
11 -519 12 -535 1z"/>
<path d="M4993 7374 c-9 -4 -13 -35 -13 -105 l0 -100 151 3 151 3 20 50 c11
28 27 58 36 69 32 35 94 60 150 59 53 0 71 11 30 19 -34 6 -511 8 -525 2z"/>
<path d="M5593 7374 c-20 -9 -15 -43 10 -67 44 -45 57 -75 57 -132 0 -61 -18
-106 -57 -142 -23 -22 -24 -27 -21 -140 l3 -118 288 -3 287 -2 2 262 c3 333 3
329 -12 338 -15 9 -537 12 -557 4z"/>
<path d="M6218 7373 c-17 -4 -18 -27 -18 -304 l0 -299 243 0 c224 0 244 2 275
20 18 11 37 32 42 46 15 40 13 521 -2 531 -13 8 -509 14 -540 6z"/>
<path d="M6828 7373 l-28 -4 0 -260 c0 -252 1 -259 20 -259 14 0 20 -7 20 -21
0 -12 10 -30 22 -41 20 -17 38 -18 237 -16 l216 3 3 289 c2 205 -1 293 -9 302
-9 11 -56 14 -233 13 -121 -1 -233 -4 -248 -6z"/>
<path d="M7367 7368 c-16 -12 -17 -39 -15 -303 l3 -290 113 -3 112 -3 0 304 0
304 -98 1 c-65 2 -104 -2 -115 -10z"/>
<path d="M5435 7255 c-28 -28 -31 -53 -10 -81 16 -22 19 -62 5 -84 -14 -23 8
-40 51 -40 33 0 39 3 39 21 0 11 -5 29 -10 40 -8 15 -5 27 14 55 26 39 25 56
-7 92 -26 29 -52 28 -82 -3z"/>
<path d="M4984 7147 c-2 -7 -3 -94 -2 -192 l3 -180 277 -3 278 -2 5 22 c3 13
5 61 3 108 l-3 85 -65 5 c-63 5 -115 25 -137 52 -20 25 -53 89 -53 103 0 13
-25 15 -150 15 -113 0 -152 -3 -156 -13z"/>
<path d="M6774 6771 c-17 -4 -37 -12 -45 -17 -10 -7 -446 -24 -549 -22 -8 0
-145 1 -305 2 l-290 1 -3 -272 -2 -273 34 0 c19 0 40 -2 48 -5 7 -3 19 -1 26
3 10 7 10 14 -3 38 -20 38 -19 117 1 160 50 106 193 134 284 56 23 -19 46 -47
52 -61 12 -34 12 -119 -1 -153 -12 -33 1 -46 44 -42 17 1 45 3 63 3 l32 1 0
145 c0 138 1 145 20 145 19 0 20 -7 20 -145 l0 -145 33 -1 c64 -3 98 -1 104 4
3 4 -24 52 -61 108 -36 56 -66 105 -66 110 0 13 119 99 136 99 8 0 18 -8 21
-17 5 -12 -6 -28 -37 -54 -28 -24 -41 -42 -37 -52 11 -29 121 -182 150 -209
16 -16 34 -25 41 -21 46 27 246 179 246 187 0 6 -25 42 -55 79 -54 67 -64 87
-45 87 9 0 20 -11 98 -100 29 -33 32 -34 48 -18 15 15 14 19 -16 63 -43 63
-26 82 22 26 63 -73 100 -44 49 38 -21 34 -27 52 -19 57 11 7 37 -18 72 -68
l16 -23 35 19 c59 32 59 36 9 112 -53 78 -123 165 -132 163 -4 -1 -21 -4 -38
-8z"/>
<path d="M0 6465 l0 -275 25 -1 c14 -1 34 -1 45 -1 66 0 61 -28 58 275 l-3
272 -62 3 -63 3 0 -276z"/>
<path d="M177 6733 c-4 -3 -7 -127 -7 -275 0 -241 2 -269 16 -266 11 2 30 48
61 148 24 80 65 198 89 263 25 64 42 122 39 127 -7 11 -188 14 -198 3z"/>
<path d="M4987 6733 c-4 -3 -7 -127 -7 -274 l0 -268 271 -3 c149 -2 277 1 285
5 12 7 14 53 14 265 0 187 -3 261 -12 270 -9 9 -85 12 -278 12 -147 0 -270 -3
-273 -7z"/>
<path d="M6915 6729 c-4 -5 18 -43 48 -82 87 -116 92 -124 78 -151 -7 -13 -60
-58 -117 -101 -57 -43 -104 -82 -104 -87 0 -4 16 -33 36 -63 31 -46 42 -55 68
-56 93 -3 379 2 387 7 5 3 9 123 9 269 0 230 -2 264 -16 269 -28 11 -382 7
-389 -5z"/>
<path d="M7361 6726 c-8 -9 -11 -90 -9 -272 l3 -259 75 -5 c41 -3 92 -3 113
-1 l37 3 0 274 0 274 -104 0 c-76 0 -107 -4 -115 -14z"/>
<path d="M5816 6394 c-35 -34 -38 -53 -17 -88 17 -28 19 -38 10 -71 -12 -44
-3 -55 48 -55 40 0 47 12 32 54 -11 30 -10 37 9 64 28 38 28 52 -1 85 -26 30
-58 35 -81 11z"/>
<path d="M6671 6250 c-39 -27 -99 -70 -131 -95 -54 -41 -58 -48 -47 -66 6 -11
19 -18 28 -17 21 4 228 174 236 194 14 38 -16 32 -86 -16z"/>
<path d="M6660 6134 c-63 -52 -116 -101 -118 -108 -2 -7 4 -19 12 -26 13 -10
34 2 136 84 66 53 120 101 120 105 0 19 -13 41 -24 41 -6 0 -63 -43 -126 -96z"/>
<path d="M6713 6062 c-67 -53 -122 -102 -123 -108 0 -7 8 -21 18 -33 17 -21
18 -20 142 80 69 56 124 107 122 113 -2 6 -11 19 -20 28 -16 17 -24 12 -139
-80z"/>
<path d="M0 5870 l0 -280 44 0 c37 0 45 3 49 23 17 65 37 288 37 404 l0 133
-65 0 -65 0 0 -280z"/>
<path d="M4980 6056 l0 -95 143 -183 143 -183 137 -3 c135 -3 137 -2 142 20 3
13 4 138 3 278 l-3 255 -282 3 -283 2 0 -94z"/>
<path d="M5585 6138 c-3 -7 -4 -132 -3 -278 l3 -265 36 1 c28 1 63 22 183 110
274 201 295 215 324 212 25 -3 27 -7 27 -48 1 -32 8 -56 28 -84 31 -45 34 -64
10 -73 -12 -5 -29 8 -59 43 l-42 49 -49 -35 c-124 -89 -442 -325 -471 -351
l-34 -29 24 -32 c13 -17 55 -75 93 -129 149 -207 246 -339 255 -344 5 -3 30 8
56 25 79 50 95 44 161 -57 144 -224 202 -311 211 -317 9 -5 82 46 325 223 48
36 87 70 87 77 0 20 -314 495 -353 534 -50 49 -198 281 -195 304 2 10 11 24
21 30 15 9 23 5 50 -25 42 -48 165 -241 173 -273 3 -13 12 -27 19 -30 13 -4
232 148 278 193 20 20 37 -10 -148 261 -40 58 -89 130 -109 160 -21 30 -39 57
-41 58 -2 2 -21 -8 -42 -22 -20 -14 -45 -26 -55 -26 -68 0 -63 56 10 94 34 18
42 40 16 50 -9 3 -51 6 -95 6 l-79 0 0 -60 c0 -62 6 -69 40 -48 26 16 39 3 51
-53 16 -68 18 -99 8 -99 -5 0 -27 7 -49 16 -22 9 -49 14 -60 11 -28 -7 -49 38
-36 76 8 21 7 34 -3 50 -10 15 -10 22 -2 25 6 2 11 21 11 43 l0 39 -45 0 c-49
0 -53 -4 -28 -32 23 -26 11 -22 -23 7 -34 29 -63 31 -145 8 -52 -14 -67 -15
-112 -4 -80 20 -216 26 -222 9z m1027 -1191 c37 -54 68 -105 68 -115 0 -12
-50 -47 -159 -110 -87 -50 -161 -92 -165 -92 -8 0 -156 200 -156 211 0 4 24
21 53 37 28 17 97 62 152 101 55 38 109 69 119 68 12 -1 45 -40 88 -100z"/>
<path d="M6390 4929 c-63 -44 -122 -84 -130 -89 -12 -7 -5 -21 35 -79 27 -40
54 -76 60 -81 12 -10 276 137 283 158 5 15 -106 172 -121 172 -7 -1 -64 -37
-127 -81z"/>
<path d="M6932 6140 c7 -22 364 -529 376 -534 10 -4 12 50 10 267 l-3 272
-193 3 c-127 1 -193 -1 -190 -8z"/>
<path d="M7355 6137 c-3 -7 -4 -131 -3 -277 l3 -265 113 -3 112 -3 0 281 0
280 -110 0 c-80 0 -112 -4 -115 -13z"/>
<path d="M6775 5981 c-118 -96 -142 -125 -111 -137 18 -7 13 -10 155 99 99 76
117 101 89 125 -10 7 -45 -16 -133 -87z"/>
<path d="M6914 5974 c-77 -52 -214 -166 -214 -178 0 -7 6 -21 14 -31 13 -18
16 -18 33 -4 10 8 61 51 113 94 135 111 125 100 108 124 l-15 21 -39 -26z"/>
<path d="M4846 5948 c-2 -7 -18 -65 -36 -128 -110 -398 -292 -756 -562 -1112
-32 -43 -56 -78 -52 -78 8 0 153 117 444 360 113 93 270 223 350 289 214 174
247 206 234 222 -6 8 -89 114 -183 237 -95 122 -177 222 -182 222 -5 0 -11 -6
-13 -12z"/>
<path d="M6870 5822 c-63 -54 -115 -104 -115 -111 0 -8 7 -18 16 -24 14 -9 32
2 95 54 148 122 170 145 155 163 -7 9 -19 16 -25 16 -6 0 -63 -45 -126 -98z"/>
<path d="M6964 5782 c-145 -118 -165 -137 -158 -155 3 -9 12 -17 19 -17 14 0
245 165 257 183 10 16 -10 47 -30 47 -9 -1 -49 -26 -88 -58z"/>
<path d="M225 5743 c-4 -21 -9 -46 -12 -56 -4 -14 49 -74 213 -238 120 -120
224 -219 232 -219 7 0 63 24 125 54 229 111 498 183 767 206 225 20 485 -17
698 -98 71 -27 96 -32 101 -23 6 9 10 7 13 -6 3 -12 46 -42 109 -76 57 -32
145 -87 194 -125 121 -91 303 -275 398 -402 136 -183 125 -173 180 -165 26 4
47 13 47 19 0 7 -43 66 -95 131 -134 168 -292 328 -435 441 -132 105 -359 242
-379 230 -5 -3 -11 0 -14 7 -12 33 -293 124 -487 159 -98 17 -430 17 -530 -1
-126 -22 -271 -58 -360 -91 -47 -17 -98 -36 -115 -42 -16 -6 -73 -33 -125 -60
l-95 -49 -50 53 c-28 29 -120 128 -204 221 -85 92 -157 167 -162 167 -4 0 -11
-17 -14 -37z"/>
<path d="M6981 5676 c-62 -47 -118 -89 -123 -94 -11 -11 0 -42 16 -42 9 0 237
152 266 177 7 7 -16 38 -31 40 -8 2 -65 -35 -128 -81z"/>
<path d="M7030 5602 c-88 -62 -125 -93 -125 -107 0 -12 6 -20 16 -19 24 2 269
164 269 178 0 12 -20 36 -29 36 -4 -1 -62 -40 -131 -88z"/>
<path d="M206 5604 c-3 -9 -6 -38 -6 -64 l0 -49 211 -193 c148 -136 217 -193
232 -192 12 1 85 30 162 64 484 216 929 268 1319 155 44 -13 102 -33 128 -44
51 -22 61 -18 73 29 6 24 1 28 -47 48 -180 74 -330 103 -558 109 -190 5 -310
-6 -475 -43 -124 -28 -337 -104 -463 -165 -67 -32 -126 -59 -130 -59 -4 0
-102 95 -217 210 -115 116 -213 210 -216 210 -4 0 -10 -7 -13 -16z"/>
<path d="M7066 5524 l-130 -86 24 -18 c23 -17 24 -17 104 39 153 106 166 116
166 134 0 31 -33 17 -164 -69z"/>
<path d="M0 5257 l0 -304 30 5 30 4 0 102 c1 55 7 187 14 291 8 105 12 193 9
198 -2 4 -22 7 -44 7 l-39 0 0 -303z"/>
<path d="M5310 5550 c0 -15 89 -130 99 -130 5 0 37 20 71 45 47 36 61 51 58
68 -3 21 -8 22 -115 25 -78 2 -113 -1 -113 -8z"/>
<path d="M7367 5553 c-14 -14 -5 -35 58 -127 36 -52 65 -104 65 -115 0 -13
-22 -36 -65 -66 -36 -26 -68 -57 -70 -68 -3 -12 -5 -65 -3 -117 l3 -95 113 -3
112 -3 0 301 0 300 -103 0 c-57 0 -107 -3 -110 -7z"/>
<path d="M6664 5469 c-150 -113 -166 -127 -153 -150 5 -11 15 -19 22 -19 11 0
235 164 267 195 13 13 12 18 -6 35 l-20 21 -110 -82z"/>
<path d="M7129 5463 c-68 -47 -145 -98 -171 -112 -77 -42 -300 -231 -295 -250
2 -9 34 -62 72 -119 50 -77 72 -102 85 -99 13 3 563 399 594 428 10 9 -140
239 -154 239 -4 0 -63 -39 -131 -87z"/>
<path d="M6693 5370 c-73 -55 -133 -104 -133 -109 0 -4 8 -15 19 -25 17 -16
24 -11 150 89 72 58 131 109 131 113 0 9 -21 32 -29 32 -4 0 -66 -45 -138
-100z"/>
<path d="M5124 5362 c-139 -114 -717 -594 -919 -763 -77 -64 -183 -157 -235
-206 -155 -142 -216 -193 -335 -278 -62 -44 -120 -84 -129 -90 -16 -9 -15 -13
11 -47 15 -20 33 -39 39 -42 6 -2 237 185 515 416 771 642 826 687 1050 850
115 84 209 156 209 159 0 9 -72 99 -80 99 -3 0 -60 -44 -126 -98z"/>
<path d="M184 5408 c-4 -18 -7 -172 -7 -343 1 -314 19 -560 44 -576 6 -3 54
-10 107 -13 101 -8 292 -34 427 -60 44 -8 134 -24 200 -36 277 -49 531 -124
784 -232 72 -31 74 -31 88 -12 15 18 15 18 8 -3 -5 -20 5 -28 107 -79 198 -99
352 -193 524 -319 39 -29 81 -56 95 -60 26 -8 76 -47 180 -137 65 -58 86 -67
105 -48 5 5 22 11 36 12 15 1 24 6 21 11 -15 25 15 62 121 146 63 50 119 91
125 91 6 0 16 10 22 23 7 12 25 35 41 52 37 38 44 67 23 99 -17 26 -16 28 41
131 64 115 79 124 114 75 12 -16 25 -30 30 -30 17 0 177 116 285 205 235 195
457 446 620 698 29 45 9 43 -47 -4 -248 -208 -570 -361 -873 -415 -95 -17
-367 -31 -407 -21 -15 4 -30 21 -41 46 -33 75 -142 216 -252 327 -196 197
-421 322 -695 386 -125 29 -390 36 -540 14 -241 -35 -464 -105 -707 -221
l-132 -63 -212 194 c-116 107 -215 194 -220 194 -4 0 -11 -15 -15 -32z m1869
-253 c89 -36 168 -63 174 -60 7 2 13 11 13 20 0 8 5 15 10 15 13 0 13 -17 -1
-25 -23 -15 3 -30 141 -85 98 -39 146 -63 148 -75 2 -9 -27 -86 -64 -171 -53
-121 -71 -154 -86 -154 -11 0 -51 14 -91 31 -170 72 -197 81 -211 70 -11 -9
-14 -8 -12 4 1 12 -45 35 -174 88 -107 45 -176 78 -178 87 -4 23 140 320 155
320 7 0 86 -29 176 -65z m754 -630 c39 -12 62 -27 92 -62 39 -44 41 -49 41
-113 0 -58 -4 -72 -29 -106 -32 -45 -71 -74 -99 -74 -10 0 -23 -5 -29 -11 -11
-11 -67 1 -103 22 -8 5 -22 12 -30 16 -38 17 -73 90 -72 150 2 86 51 152 132
178 25 7 45 14 46 14 0 1 23 -6 51 -14z"/>
<path d="M1820 5054 c-33 -70 -60 -130 -60 -135 0 -12 16 -19 182 -87 81 -33
149 -57 153 -54 3 4 9 1 14 -6 8 -13 243 -112 266 -112 7 0 22 19 33 43 57
122 94 217 89 229 -2 8 -49 31 -103 52 -55 21 -112 44 -129 51 -76 34 -363
145 -373 145 -7 0 -39 -57 -72 -126z"/>
<path d="M2711 4424 c-26 -33 -26 -52 -2 -83 15 -20 17 -31 9 -58 -12 -44 4
-65 46 -61 30 3 31 4 28 51 -1 36 3 55 18 74 25 32 25 44 -1 77 -13 17 -30 26
-49 26 -19 0 -36 -9 -49 -26z"/>
<path d="M6741 5294 c-127 -104 -151 -134 -110 -142 24 -5 264 196 264 221 0
11 -5 22 -11 24 -6 2 -70 -45 -143 -103z"/>
<path d="M5477 5352 c-16 -18 -7 -32 163 -268 99 -137 186 -250 194 -252 20
-4 49 27 38 42 -5 6 -63 85 -127 176 -155 216 -234 320 -244 320 -4 0 -15 -8
-24 -18z"/>
<path d="M2330 5294 c-6 -14 -10 -29 -10 -34 0 -5 35 -27 78 -50 216 -115 431
-325 574 -559 l37 -61 71 0 c38 0 70 4 70 9 0 12 -121 173 -189 251 -169 194
-363 352 -542 441 -71 35 -77 36 -89 3z"/>
<path d="M5398 5296 c-10 -7 -18 -20 -18 -28 0 -7 42 -69 93 -136 50 -67 133
-176 182 -242 50 -66 93 -120 96 -120 4 0 17 8 29 18 l22 18 -183 252 c-100
139 -187 252 -193 252 -6 0 -19 -7 -28 -14z"/>
<path d="M5278 5207 c-24 -18 -100 -74 -170 -125 -71 -52 -128 -96 -128 -98 0
-3 20 -30 45 -61 25 -30 45 -62 45 -71 0 -33 -16 -45 -53 -39 -32 5 -46 -3
-175 -96 -438 -318 -493 -360 -488 -372 10 -26 257 -410 269 -419 9 -5 51 19
127 74 360 256 465 330 472 330 3 0 10 9 13 20 7 23 109 96 147 105 15 4 24
14 25 27 1 11 3 21 5 23 45 38 236 165 249 165 26 0 44 -37 28 -56 -20 -25
-231 -174 -245 -174 -23 0 -16 -22 25 -85 35 -55 362 -573 635 -1007 136 -217
139 -224 128 -244 -12 -22 -222 -164 -242 -164 -9 0 -21 5 -27 11 -25 25 -248
-161 -241 -200 3 -14 225 -190 242 -191 4 0 33 23 63 50 79 72 276 162 319
146 26 -10 140 -282 220 -525 185 -562 298 -1183 368 -2011 14 -163 11 -189
-18 -190 -6 -1 -24 -7 -41 -15 -26 -12 7 -13 271 -14 l301 -1 -4 163 c-6 247
-30 607 -54 802 -31 257 -58 444 -99 670 -62 348 -166 719 -286 1021 -79 201
-212 458 -289 558 -52 68 -45 107 22 125 18 5 29 15 31 29 2 12 10 22 18 22
10 0 14 -13 14 -47 0 -48 38 -133 73 -161 11 -9 71 -12 228 -10 l214 3 3 271
2 271 -46 7 c-60 8 -402 8 -442 0 -29 -6 -31 -10 -34 -52 -4 -63 -28 -69 -28
-8 0 56 -15 65 -103 61 -67 -2 -73 -6 -57 -35 15 -28 -11 -60 -51 -60 -35 0
-52 20 -169 206 l-95 149 -5 -65 c-3 -36 -13 -79 -22 -96 -52 -96 -193 -123
-282 -53 -32 25 -66 101 -66 146 0 38 31 113 55 133 10 8 13 20 9 34 -6 18 -5
19 8 8 12 -10 27 -10 64 -2 57 13 101 7 150 -20 19 -11 34 -16 34 -12 0 5 -31
57 -70 118 -38 60 -70 120 -70 133 0 16 23 45 76 95 43 41 75 79 73 87 -8 33
-215 339 -229 339 -9 0 -76 -41 -150 -90 -128 -87 -134 -90 -157 -75 -24 16
-31 49 -13 60 6 3 10 13 10 22 0 25 -352 492 -372 492 -9 1 -36 -14 -60 -32z
m599 -875 c26 -16 56 -31 66 -35 9 -3 17 -10 17 -15 0 -20 -101 -92 -129 -92
-9 0 -13 17 -27 123 -8 57 3 60 73 19z"/>
<path d="M7265 5128 c-151 -110 -215 -162 -207 -167 6 -3 67 -5 136 -3 l126 3
0 95 c0 104 -4 109 -55 72z"/>
<path d="M4609 4772 c-136 -114 -322 -270 -415 -347 -93 -76 -171 -142 -174
-145 -3 -3 -43 -37 -90 -75 -47 -38 -87 -72 -90 -75 -3 -3 -53 -45 -111 -92
-137 -112 -138 -114 -112 -139 l20 -21 149 108 c82 59 165 119 184 134 19 15
85 63 145 107 220 160 275 199 381 277 60 44 168 122 239 175 212 155 225 165
225 176 0 6 -11 22 -24 34 -13 12 -32 38 -42 57 -10 18 -23 34 -29 33 -5 0
-121 -93 -256 -207z"/>
<path d="M0 4704 l0 -215 48 3 c40 3 47 6 45 23 -1 11 -7 97 -13 190 -14 219
-13 215 -50 215 l-30 0 0 -216z"/>
<path d="M6900 4860 c-47 -34 -88 -66 -92 -73 -4 -7 -8 -103 -8 -213 0 -201 0
-202 23 -205 12 -2 128 -2 257 1 l235 5 0 270 0 270 -166 3 -165 2 -84 -60z"/>
<path d="M7355 4907 c-3 -7 -4 -129 -3 -272 l3 -260 85 -5 c47 -3 97 -3 113
-1 l27 3 0 274 0 274 -110 0 c-80 0 -112 -4 -115 -13z"/>
<path d="M6559 4612 c-165 -122 -287 -228 -275 -240 9 -8 469 -3 478 6 12 12
6 365 -7 368 -5 1 -94 -59 -196 -134z"/>
<path d="M0 4080 l0 -322 75 4 c41 2 79 8 84 13 6 6 15 41 20 79 14 101 28
111 144 109 287 -4 806 -121 1157 -260 63 -25 122 -46 130 -46 8 0 17 -3 20
-8 3 -4 66 -36 140 -71 153 -73 330 -172 470 -264 215 -141 540 -408 540 -444
0 -11 -34 -69 -75 -130 -41 -61 -75 -113 -75 -116 0 -4 43 -52 96 -108 359
-377 640 -845 799 -1331 45 -139 50 -165 32 -165 -10 0 -21 20 -32 58 -117
409 -339 832 -623 1187 -86 108 -263 305 -284 316 -14 7 -22 2 -42 -28 -17
-25 -22 -41 -16 -47 15 -15 12 -30 -3 -17 -11 8 -18 7 -29 -7 -17 -19 -468
-664 -489 -699 -12 -20 -11 -26 8 -50 59 -75 178 -260 234 -363 35 -63 68
-118 74 -122 5 -4 49 -8 96 -8 l86 0 12 42 c18 59 53 100 107 127 84 42 175
12 236 -78 20 -29 24 -123 8 -165 -25 -68 -124 -122 -198 -110 -60 9 -112 52
-144 117 l-28 57 -86 0 c-97 0 -94 6 -49 -95 77 -170 160 -460 190 -660 24
-157 41 -443 28 -456 -25 -25 -33 4 -33 121 0 177 -34 417 -85 607 -54 199
-166 483 -189 483 -7 0 -13 12 -13 28 0 35 -99 211 -198 352 -43 61 -82 113
-87 116 -21 13 -50 -13 -117 -105 -39 -55 -86 -111 -103 -126 l-31 -26 32 -42
c129 -173 226 -357 284 -542 73 -230 97 -397 97 -675 l0 -200 -55 0 -55 0 0
61 0 60 -42 -3 -43 -3 -3 -57 c-2 -42 -7 -58 -17 -58 -10 0 -15 16 -17 58 l-3
57 -289 3 c-225 2 -291 -1 -298 -10 -4 -7 -8 -34 -8 -60 0 -35 -4 -48 -15 -48
-10 0 -15 15 -17 58 l-3 57 -270 0 -270 0 -3 -62 -3 -63 3000 0 3000 0 76 35
76 34 -7 113 c-4 62 -14 185 -23 273 -15 149 -17 160 -36 158 -11 -1 -63 -6
-115 -12 -52 -6 -138 -15 -190 -21 -52 -5 -133 -14 -180 -20 -47 -5 -233 -26
-415 -45 -181 -19 -366 -40 -410 -45 -44 -6 -125 -15 -180 -20 -55 -6 -158
-17 -230 -25 -295 -32 -416 -45 -530 -57 -66 -7 -123 -16 -127 -22 -4 -6 -5
-22 -3 -36 2 -14 7 -87 10 -163 l6 -137 -44 0 -44 0 -7 148 c-8 167 -30 403
-53 572 -9 63 -17 138 -19 165 -3 64 -67 296 -151 548 -62 186 -71 230 -39
196 22 -23 155 -438 216 -676 8 -31 16 -43 29 -43 27 0 38 -37 56 -200 32
-278 27 -255 55 -253 54 3 259 24 330 34 41 5 122 14 180 19 58 5 164 16 235
25 133 16 291 34 540 60 77 8 201 22 275 30 74 8 198 22 275 30 77 9 201 22
275 30 74 8 164 18 198 22 l64 6 -7 56 c-22 188 -69 478 -79 488 -4 4 -28 1
-54 -6 -137 -39 -182 -45 -327 -45 -174 -1 -235 12 -360 73 -123 61 -195 124
-305 270 l-25 33 -289 14 c-159 7 -297 16 -307 19 -17 6 -19 19 -19 136 0 112
2 131 17 136 16 6 286 -7 609 -30 88 -7 168 -11 177 -9 22 4 22 36 -2 122 -11
38 -23 95 -27 126 l-7 57 -168 -5 c-136 -5 -171 -3 -180 8 -22 27 41 326 89
424 86 176 176 289 288 361 55 36 62 44 53 60 -10 20 -102 164 -351 549 -80
124 -209 324 -287 445 -78 121 -146 221 -150 223 -13 4 -221 -142 -221 -156 0
-8 8 -12 173 -74 113 -43 119 -49 97 -100 -9 -22 -340 -937 -410 -1135 -49
-138 -36 -132 -172 -85 -190 66 -189 65 -155 164 14 40 76 213 137 383 61 171
147 409 190 530 43 121 83 233 89 248 14 37 14 40 -5 33 -15 -6 -176 -118
-321 -225 -35 -25 -144 -102 -242 -171 -142 -99 -179 -129 -175 -143 8 -25 -7
-39 -81 -84 -36 -21 -65 -43 -65 -48 0 -6 29 -51 65 -99 36 -49 64 -96 63
-105 -3 -12 -31 -20 -128 -33 -69 -9 -132 -15 -140 -12 -17 5 -120 154 -120
173 0 14 5 19 85 86 33 27 66 58 73 67 10 14 18 16 32 8 12 -7 21 -7 25 0 9
15 141 90 158 90 46 0 34 27 -103 230 -76 113 -144 205 -152 204 -28 -2 -147
-97 -163 -131 -9 -18 -23 -33 -32 -33 -20 0 -73 49 -73 67 0 25 -23 13 -105
-57 -45 -38 -86 -70 -89 -70 -4 0 -20 14 -36 32 l-29 32 -42 -47 c-24 -26 -47
-47 -53 -47 -6 0 -19 -11 -31 -24 -30 -37 -217 -186 -240 -192 -11 -3 -29 -24
-39 -46 l-19 -41 47 -44 46 -45 -21 -29 c-34 -48 -56 -40 -197 78 -250 210
-262 221 -262 259 0 30 -8 39 -73 87 -178 131 -539 340 -606 350 -10 2 -25 8
-33 15 -21 17 -219 95 -359 140 -154 50 -329 95 -478 121 -143 26 -159 26
-180 -1 -17 -21 -20 -21 -92 -9 -197 34 -359 52 -511 58 l-168 6 0 -323z
m3135 -901 c68 -67 127 -130 130 -140 4 -11 14 -19 23 -19 22 -1 49 -21 76
-58 71 -98 209 -271 218 -274 7 -3 12 -23 12 -46 1 -32 8 -48 32 -74 50 -53
151 -194 209 -293 79 -134 178 -341 170 -355 -11 -17 -16 -9 -99 155 -84 168
-192 340 -269 430 -61 70 -77 84 -98 85 -21 0 -58 41 -188 208 -65 83 -111
152 -111 165 0 13 -13 31 -32 44 -64 45 -248 236 -248 258 0 64 39 45 175 -86z
m581 55 c4 -14 3 -29 -2 -33 -5 -3 -78 -52 -161 -108 -164 -111 -203 -125
-203 -75 0 29 39 64 151 134 24 16 71 46 104 67 72 48 102 52 111 15z m183
-400 c41 -8 78 -17 82 -20 4 -2 0 -18 -9 -35 -16 -29 -16 -31 3 -45 19 -15 18
-16 -12 -9 -26 5 -34 2 -45 -14 -22 -35 -41 -23 -76 47 -32 66 -39 92 -24 92
4 0 40 -7 81 -16z m433 -91 c81 -31 118 -85 118 -170 0 -62 0 -63 28 -63 68
-1 172 -84 172 -137 0 -35 -15 -28 -44 21 -18 30 -39 50 -71 65 -61 29 -86 27
-128 -11 -20 -18 -47 -41 -61 -51 -14 -10 -26 -24 -26 -32 0 -8 -7 -15 -15
-15 -8 0 -15 9 -15 20 0 17 -7 20 -40 20 -51 0 -92 21 -123 62 -35 47 -49 100
-42 153 7 41 5 46 -16 55 -24 10 -24 10 2 5 19 -3 33 3 55 26 37 39 91 64 146
68 10 0 37 -6 60 -16z m-1187 -105 c36 -18 65 -37 65 -44 0 -6 -9 -19 -19 -28
-12 -11 -17 -25 -13 -39 5 -19 3 -20 -11 -9 -14 12 -20 11 -39 -2 -38 -27 -45
-20 -52 52 -4 37 -10 75 -12 85 -7 24 6 22 81 -15z m183 -232 c60 8 116 -8
155 -45 42 -39 57 -74 57 -136 0 -64 -28 -118 -81 -156 -46 -32 -149 -33 -200
-1 -43 26 -89 106 -89 155 0 45 30 115 63 146 25 23 25 24 9 50 l-16 26 26
-23 c22 -20 32 -22 76 -16z m-1124 -1119 c8 -32 13 -37 40 -38 32 -1 29 -3
-16 -13 -23 -5 -28 -12 -28 -36 0 -16 -5 -32 -10 -35 -11 -7 -160 62 -160 74
0 4 30 22 68 41 37 19 69 39 71 43 7 18 27 -2 35 -36z m3499 -452 c9 -71 16
-143 15 -160 l-3 -30 -275 -32 c-151 -17 -277 -29 -280 -26 -8 7 -28 317 -21
325 4 4 90 16 191 27 102 11 201 22 220 24 19 2 57 4 85 3 l50 -1 18 -130z
m-689 53 c2 -7 9 -80 16 -162 8 -102 9 -151 2 -155 -20 -12 -523 -64 -532 -55
-18 19 -39 333 -22 335 4 0 99 11 212 23 245 28 319 31 324 14z m-1375 -150
c33 -164 61 -449 61 -617 0 -92 -3 -111 -15 -111 -12 0 -15 17 -15 93 -1 158
-27 434 -55 591 -18 96 -18 96 -1 96 10 0 18 -19 25 -52z"/>
<path d="M4226 2655 c-29 -27 -34 -66 -10 -85 11 -10 14 -28 12 -64 l-3 -51
33 -3 c48 -5 65 12 48 47 -13 24 -12 30 9 65 26 43 24 60 -11 94 -30 28 -45
28 -78 -3z"/>
<path d="M3320 2312 c-33 -34 -37 -57 -14 -87 10 -14 13 -31 9 -58 -8 -45 6
-67 44 -67 41 0 52 16 36 54 -12 27 -11 35 6 63 28 45 22 83 -18 106 l-33 19
-30 -30z"/>
<path d="M5393 915 c-111 -13 -207 -26 -213 -30 -13 -8 -3 -244 10 -259 9 -9
480 42 493 53 4 4 -1 63 -10 132 l-18 124 -30 1 c-16 1 -121 -8 -232 -21z"/>
<path d="M4717 845 c-114 -12 -210 -25 -214 -29 -8 -8 15 -258 25 -267 4 -4
99 3 212 17 113 13 214 24 225 24 42 1 44 9 34 125 -14 154 -14 155 -47 154
-15 -1 -120 -11 -235 -24z"/>
<path d="M5320 4350 c-25 -16 -52 -30 -60 -30 -8 -1 -32 -15 -53 -33 l-38 -33
98 -152 c54 -84 141 -219 193 -300 52 -82 167 -259 255 -395 88 -136 178 -276
200 -312 66 -105 57 -103 157 -37 48 31 88 64 88 72 0 9 -41 81 -91 160 -50
80 -142 226 -204 325 -62 99 -150 239 -195 310 -46 72 -128 203 -184 292 -55
90 -105 163 -111 163 -5 0 -30 -14 -55 -30z"/>
<path d="M4291 4312 c-21 -17 -21 -17 116 -224 76 -114 144 -210 152 -213 8
-3 21 0 28 8 11 11 2 31 -59 125 -40 61 -102 157 -138 212 -35 56 -67 103 -71
106 -4 2 -16 -4 -28 -14z"/>
<path d="M6224 4316 c-5 -12 76 -144 273 -444 l73 -113 98 3 97 3 3 260 c1
143 0 270 -3 283 l-5 22 -266 0 c-215 0 -266 -3 -270 -14z"/>
<path d="M6800 4045 l0 -285 258 2 257 3 0 280 0 280 -257 3 -258 2 0 -285z"/>
<path d="M7355 4317 c-3 -7 -4 -134 -3 -282 l3 -270 113 -3 112 -3 0 286 0
285 -110 0 c-80 0 -112 -4 -115 -13z"/>
<path d="M4214 4256 c-8 -22 265 -426 287 -426 10 0 20 4 23 8 5 9 -258 411
-278 424 -17 11 -26 10 -32 -6z"/>
<path d="M4153 4212 c-9 -6 18 -55 98 -173 61 -90 125 -185 142 -212 31 -46
63 -59 61 -25 -2 22 -266 417 -279 417 -5 1 -16 -3 -22 -7z"/>
<path d="M4085 4164 c-8 -9 -12 -21 -8 -27 89 -139 277 -417 283 -417 4 0 15
9 24 19 17 19 12 27 -121 225 -76 112 -143 207 -150 210 -7 3 -19 -2 -28 -10z"/>
<path d="M3306 4043 c-51 -87 -54 -102 -27 -127 10 -9 34 -39 52 -66 19 -28
40 -50 48 -50 15 0 141 107 141 119 0 4 -8 16 -18 27 -9 10 -46 54 -81 97 -35
42 -65 77 -67 77 -2 0 -24 -35 -48 -77z"/>
<path d="M4020 4104 c0 -25 260 -424 276 -424 38 0 19 40 -110 235 -124 188
-166 235 -166 189z"/>
<path d="M3951 4066 c-10 -12 13 -53 119 -213 155 -233 155 -233 175 -213 13
13 4 31 -70 145 -46 72 -107 167 -135 213 -52 82 -67 94 -89 68z"/>
<path d="M3883 4015 c-5 -15 241 -399 272 -425 9 -7 16 -6 25 5 10 12 0 34
-65 132 -43 65 -105 160 -138 211 -58 89 -81 108 -94 77z"/>
<path d="M4912 4017 c-5 -7 -82 -217 -172 -467 -89 -250 -189 -529 -221 -619
-33 -90 -57 -166 -54 -169 13 -14 241 -80 248 -73 5 5 58 146 119 312 60 167
158 440 219 606 60 167 109 309 109 316 0 8 -32 26 -72 42 -40 15 -94 36 -120
46 -35 14 -49 15 -56 6z"/>
<path d="M6070 4001 c-34 -34 -37 -51 -13 -92 15 -24 15 -34 5 -61 -15 -40 -2
-58 45 -58 40 0 50 18 33 60 -11 25 -9 33 9 56 27 35 27 65 -1 91 -40 35 -47
36 -78 4z"/>
<path d="M296 3933 c-3 -4 -6 -23 -6 -43 0 -20 -7 -83 -15 -141 -8 -57 -17
-123 -21 -147 -3 -24 -14 -51 -26 -62 -18 -16 -21 -30 -19 -77 2 -58 -26 -333
-34 -342 -3 -2 2 -13 12 -23 18 -20 19 -48 4 -151 -6 -40 -20 -137 -31 -217
-20 -151 -31 -223 -54 -375 -16 -102 -10 -115 49 -115 43 0 213 -32 370 -70
199 -47 384 -113 560 -200 231 -113 391 -222 549 -374 76 -73 96 -87 96 -67 0
5 39 60 88 122 48 63 93 127 100 142 11 26 171 256 632 912 73 105 137 191
141 193 18 7 -9 37 -110 120 -199 166 -378 290 -581 404 -138 78 -344 178
-374 181 -11 1 -25 7 -31 13 -12 14 -194 85 -335 131 -243 78 -571 151 -785
173 -60 6 -124 13 -142 15 -17 2 -34 1 -37 -2z m749 -414 c120 -33 160 -207
69 -300 -72 -73 -185 -78 -254 -9 -58 58 -71 90 -60 157 21 124 121 186 245
152z m-607 -159 c2 -14 8 -30 13 -37 7 -7 6 -14 -1 -18 -5 -3 -10 -17 -10 -30
0 -13 -4 -26 -9 -30 -10 -6 -159 50 -175 66 -12 11 130 79 159 76 13 -1 21
-11 23 -27z"/>
<path d="M943 3438 c-32 -40 -34 -58 -14 -92 18 -28 19 -38 10 -65 -14 -39 1
-61 41 -61 41 0 56 22 40 61 -11 27 -11 33 9 59 26 36 26 50 0 84 -22 28 -69
36 -86 14z"/>
<path d="M0 3447 l0 -278 53 3 52 3 16 163 c9 89 22 169 29 177 9 11 9 18 -4
30 -12 12 -16 36 -16 95 0 90 -3 93 -84 88 l-46 -3 0 -278z"/>
<path d="M7367 3718 c-16 -12 -17 -35 -15 -278 l3 -265 113 -3 112 -3 0 280 0
279 -98 1 c-66 1 -103 -2 -115 -11z"/>
<path d="M3825 3350 c-33 -28 -62 -55 -63 -60 -2 -6 16 -40 40 -75 38 -57 47
-65 75 -65 57 0 183 22 183 32 0 6 -24 42 -53 82 -29 39 -63 86 -76 104 -12
17 -28 32 -34 32 -7 0 -39 -23 -72 -50z"/>
<path d="M0 2847 c0 -226 3 -288 12 -285 7 3 16 27 21 54 9 60 34 237 51 359
7 50 18 101 25 114 17 31 7 38 -57 43 l-52 3 0 -288z"/>
<path d="M6913 3127 c-2 -4 27 -72 66 -150 40 -79 95 -203 125 -277 l53 -135
79 0 79 0 0 280 0 280 -198 5 c-110 3 -201 1 -204 -3z"/>
<path d="M7355 3117 c-3 -7 -4 -134 -3 -282 l3 -270 113 -3 112 -3 0 286 0
285 -110 0 c-80 0 -112 -4 -115 -13z"/>
<path d="M5675 2690 c-8 -16 -15 -34 -15 -39 0 -15 241 -170 255 -164 7 2 17
15 23 28 10 22 4 29 -108 114 -65 50 -123 91 -129 91 -6 0 -17 -13 -26 -30z"/>
<path d="M6243 2700 c-274 -98 -405 -336 -349 -632 31 -161 52 -210 118 -276
149 -149 373 -204 601 -146 83 20 82 13 23 234 -76 284 -181 589 -261 763 -40
87 -45 89 -132 57z m-45 -317 c49 -36 66 -70 66 -126 0 -86 -59 -147 -142
-147 -76 0 -129 39 -150 108 -20 67 18 148 83 178 39 18 110 11 143 -13z m262
-398 c107 -55 96 -223 -17 -270 -48 -20 -76 -19 -124 5 -72 37 -103 116 -73
188 32 81 135 118 214 77z"/>
<path d="M6053 2360 c-91 -55 -78 -185 22 -218 110 -37 204 74 150 178 -30 58
-112 77 -172 40z"/>
<path d="M6333 1966 c-18 -8 -42 -30 -53 -48 -51 -80 11 -188 107 -188 62 0
113 47 119 110 3 26 -1 55 -8 69 -31 57 -107 83 -165 57z"/>
<path d="M5630 2601 c-5 -11 -10 -26 -10 -33 0 -12 220 -138 255 -146 15 -4
26 20 17 35 -7 10 -189 131 -229 152 -19 9 -24 8 -33 -8z"/>
<path d="M5592 2505 c-6 -14 -9 -30 -7 -37 6 -14 239 -108 268 -108 37 0 17
36 -35 64 -29 16 -85 46 -125 67 -39 22 -75 39 -81 39 -5 0 -14 -11 -20 -25z"/>
<path d="M7184 2516 c-3 -8 9 -58 26 -112 17 -54 44 -144 60 -201 16 -57 34
-111 39 -121 7 -12 10 51 11 209 0 255 6 239 -81 239 -34 0 -51 -5 -55 -14z"/>
<path d="M7362 2522 c-9 -7 -12 -71 -10 -288 l3 -279 113 -3 112 -3 0 291 0
290 -102 0 c-57 0 -109 -4 -116 -8z"/>
<path d="M5567 2423 c-4 -3 -7 -19 -7 -34 0 -25 5 -29 53 -42 149 -43 229 -59
240 -48 19 19 -10 36 -139 85 -126 48 -136 50 -147 39z"/>
<path d="M5547 2323 c-9 -9 -9 -53 1 -53 4 0 70 -11 147 -24 78 -14 144 -21
149 -16 21 21 -10 37 -130 68 -133 33 -156 37 -167 25z"/>
<path d="M0 2050 l0 -101 63 3 62 3 3 88 c3 97 7 92 -75 102 l-53 6 0 -101z"/>
<path d="M174 2116 c-3 -7 -4 -46 -2 -87 l3 -74 273 -3 c242 -2 273 -1 279 14
3 8 -1 22 -8 29 -18 17 -231 77 -369 103 -171 33 -170 33 -176 18z"/>
<path d="M0 1640 l0 -281 63 3 62 3 0 275 0 275 -62 3 -63 3 0 -281z"/>
<path d="M175 1908 c-3 -8 -4 -132 -3 -278 l3 -265 231 -3 231 -2 17 32 17 33
-6 -33 c-7 -33 -6 -33 27 -30 l33 3 3 69 c2 38 -1 72 -7 75 -6 4 -6 22 0 51 5
25 8 115 7 200 l-3 155 -273 3 c-214 2 -274 0 -277 -10z"/>
<path d="M765 1907 c-3 -7 -4 -131 -3 -277 l3 -265 270 0 270 0 3 173 c2 172
2 173 -22 195 -34 30 -178 111 -273 153 -68 29 -89 34 -161 34 -57 0 -84 -4
-87 -13z"/>
<path d="M7356 1912 c-2 -4 7 -68 21 -142 13 -74 35 -191 47 -260 12 -69 25
-131 29 -137 5 -8 31 -13 68 -13 l59 0 0 280 0 280 -109 0 c-61 0 -112 -4
-115 -8z"/>
<path d="M5114 1857 c-3 -8 -3 -56 -2 -108 l3 -94 95 -6 c52 -4 187 -10 300
-14 l205 -8 40 -59 c22 -33 75 -92 117 -132 195 -185 462 -238 785 -155 43 10
84 25 91 32 10 11 7 40 -17 161 -17 82 -32 151 -35 153 -3 3 -33 -2 -68 -12
-95 -25 -248 -30 -337 -11 -103 22 -205 75 -287 150 l-70 64 -94 6 c-776 53
-719 51 -726 33z"/>
<path d="M1347 1683 c-9 -8 -9 -286 -1 -307 5 -14 30 -16 175 -16 118 0 169 3
169 11 0 17 -155 173 -240 242 -99 80 -96 78 -103 70z"/>
<path d="M2687 1322 c-32 -34 -34 -51 -7 -85 17 -21 18 -30 9 -56 -16 -46 -6
-61 40 -61 45 0 52 11 38 57 -8 26 -6 36 12 58 27 36 27 47 -5 84 -32 38 -53
39 -87 3z"/>
<path d="M0 1055 l0 -276 63 3 62 3 0 270 0 270 -62 3 -63 3 0 -276z"/>
<path d="M175 1317 c-3 -7 -4 -129 -3 -272 l3 -260 275 0 275 0 0 270 0 270
-273 3 c-214 2 -274 0 -277 -11z"/>
<path d="M765 1317 c-3 -7 -4 -129 -3 -272 l3 -260 270 0 270 0 0 270 0 270
-268 3 c-210 2 -269 0 -272 -11z"/>
<path d="M1346 1314 c-9 -24 -7 -507 2 -522 7 -9 73 -12 298 -10 l289 3 -1 91
c-2 87 -4 95 -49 190 -47 97 -108 197 -148 242 -20 21 -26 22 -203 22 -157 0
-183 -2 -188 -16z"/>
<path d="M7460 1301 c0 -15 9 -93 19 -172 10 -79 22 -182 26 -229 8 -114 11
-120 46 -120 l29 0 0 275 0 275 -60 0 c-59 0 -60 0 -60 -29z"/>
<path d="M0 465 l0 -285 59 0 59 0 7 193 c3 105 5 233 3 282 l-3 90 -62 3 -63
3 0 -286z"/>
<path d="M173 734 c-3 -8 -2 -111 2 -227 4 -117 8 -237 8 -267 l2 -55 85 -8
c47 -4 164 -10 261 -13 145 -4 178 -3 187 9 9 11 12 89 10 293 l-3 279 -273 3
c-242 2 -273 1 -279 -14z"/>
<path d="M765 738 c-3 -8 -4 -139 -3 -293 l3 -280 270 0 270 0 0 290 0 290
-268 3 c-210 2 -269 0 -272 -10z"/>
<path d="M1352 738 c-17 -17 -17 -549 0 -566 17 -17 559 -17 576 0 9 9 12 85
12 279 0 147 -3 274 -6 283 -5 14 -40 16 -288 16 -206 0 -285 -3 -294 -12z"/>
<path d="M1983 743 c-10 -4 -13 -70 -13 -289 l0 -284 24 -6 c14 -3 33 -4 43
-2 17 3 18 16 17 168 -1 120 -7 196 -23 278 -22 122 -29 141 -48 135z"/>
<path d="M7526 742 c-2 -4 -1 -64 5 -132 5 -69 12 -191 16 -273 4 -97 11 -153
19 -165 11 -14 13 33 14 281 l0 297 -24 0 c-14 0 -27 -4 -30 -8z"/>
<path d="M356 123 c-4 -4 -44 -10 -89 -13 l-82 -5 -3 -52 -3 -53 276 0 276 0
-3 63 -3 62 -181 3 c-99 1 -184 -1 -188 -5z"/>
</g>
</svg>
